<svg width="311" height="317" viewBox="0 0 311 317" fill="none" xmlns="http://www.w3.org/2000/svg">
<rect x="5" y="5" width="301" height="307" rx="40" fill="#1890FF" stroke="#1890FF" stroke-width="10"/>
<path d="M76.24 211V103.9H89.092V150.565H91.234L136.522 103.9H153.658L101.485 156.838L155.494 211H137.899L91.234 163.417H89.092V211H76.24ZM193.033 213.142C187.831 213.142 183.088 212.224 178.804 210.388C174.52 208.552 171.154 205.9 168.706 202.432C166.258 198.964 165.034 194.731 165.034 189.733C165.034 184.633 166.258 180.451 168.706 177.187C171.154 173.821 174.52 171.322 178.804 169.69C183.088 167.956 187.882 167.089 193.186 167.089H218.431V161.581C218.431 156.277 216.85 152.095 213.688 149.035C210.628 145.975 206.038 144.445 199.918 144.445C193.9 144.445 189.208 145.924 185.842 148.882C182.476 151.738 180.181 155.614 178.957 160.51L167.635 156.838C168.859 152.656 170.797 148.882 173.449 145.516C176.101 142.048 179.62 139.294 184.006 137.254C188.494 135.112 193.849 134.041 200.071 134.041C209.659 134.041 217.105 136.54 222.409 141.538C227.713 146.434 230.365 153.37 230.365 162.346V196.159C230.365 199.219 231.793 200.749 234.649 200.749H241.534V211H230.977C227.611 211 224.908 210.082 222.868 208.246C220.828 206.308 219.808 203.758 219.808 200.596V199.831H217.972C216.85 201.769 215.32 203.809 213.382 205.951C211.546 207.991 208.996 209.674 205.732 211C202.468 212.428 198.235 213.142 193.033 213.142ZM194.41 202.738C201.55 202.738 207.313 200.647 211.699 196.465C216.187 192.181 218.431 186.214 218.431 178.564V176.881H193.645C188.851 176.881 184.873 177.952 181.711 180.094C178.651 182.134 177.121 185.245 177.121 189.427C177.121 193.609 178.702 196.873 181.864 199.219C185.128 201.565 189.31 202.738 194.41 202.738Z" fill="white"/>
</svg>
