<svg width="311" height="317" viewBox="0 0 311 317" fill="none" xmlns="http://www.w3.org/2000/svg">
<rect x="5" y="5" width="301" height="307" rx="40" fill="#1890FF" stroke="#1890FF" stroke-width="10"/>
<path d="M52 228V88H68.8V149H71.6L130.8 88H153.2L85 157.2L155.6 228H132.6L71.6 165.8H68.8V228H52ZM204.67 230.8C197.87 230.8 191.67 229.6 186.07 227.2C180.47 224.8 176.07 221.333 172.87 216.8C169.67 212.267 168.07 206.733 168.07 200.2C168.07 193.533 169.67 188.067 172.87 183.8C176.07 179.4 180.47 176.133 186.07 174C191.67 171.733 197.937 170.6 204.87 170.6H237.87V163.4C237.87 156.467 235.804 151 231.67 147C227.67 143 221.67 141 213.67 141C205.804 141 199.67 142.933 195.27 146.8C190.87 150.533 187.87 155.6 186.27 162L171.47 157.2C173.07 151.733 175.604 146.8 179.07 142.4C182.537 137.867 187.137 134.267 192.87 131.6C198.737 128.8 205.737 127.4 213.87 127.4C226.404 127.4 236.137 130.667 243.07 137.2C250.004 143.6 253.47 152.667 253.47 164.4V208.6C253.47 212.6 255.337 214.6 259.07 214.6H268.07V228H254.27C249.87 228 246.337 226.8 243.67 224.4C241.004 221.867 239.67 218.533 239.67 214.4V213.4H237.27C235.804 215.933 233.804 218.6 231.27 221.4C228.87 224.067 225.537 226.267 221.27 228C217.004 229.867 211.47 230.8 204.67 230.8ZM206.47 217.2C215.804 217.2 223.337 214.467 229.07 209C234.937 203.4 237.87 195.6 237.87 185.6V183.4H205.47C199.204 183.4 194.004 184.8 189.87 187.6C185.87 190.267 183.87 194.333 183.87 199.8C183.87 205.267 185.937 209.533 190.07 212.6C194.337 215.667 199.804 217.2 206.47 217.2Z" fill="white"/>
</svg>
