<svg width="311" height="317" viewBox="0 0 311 317" fill="none" xmlns="http://www.w3.org/2000/svg">
<rect x="5" y="5" width="301" height="307" rx="40" fill="#F7D4C1" stroke="#F7D4C1" stroke-width="10"/>
<path d="M50.234 246.378L49.775 232.608L114.647 165.9H127.652L80.375 215.472L73.949 222.357L50.234 246.378ZM40.442 273V165.9H51.764V273H40.442ZM117.401 273L71.195 219.756L78.845 211.494L130.865 273H117.401ZM195.166 273V255.252L194.707 252.345V222.663C194.707 215.829 192.769 210.576 188.893 206.904C185.119 203.232 179.458 201.396 171.91 201.396C166.708 201.396 161.761 202.263 157.069 203.997C152.377 205.731 148.399 208.026 145.135 210.882L140.239 202.773C144.319 199.305 149.215 196.653 154.927 194.817C160.639 192.879 166.657 191.91 172.981 191.91C183.385 191.91 191.392 194.511 197.002 199.713C202.714 204.813 205.57 212.616 205.57 223.122V273H195.166ZM167.473 273.765C161.455 273.765 156.202 272.796 151.714 270.858C147.328 268.818 143.962 266.064 141.616 262.596C139.27 259.026 138.097 254.946 138.097 250.356C138.097 246.174 139.066 242.4 141.004 239.034C143.044 235.566 146.308 232.812 150.796 230.772C155.386 228.63 161.506 227.559 169.156 227.559H196.849V235.668H169.462C161.71 235.668 156.304 237.045 153.244 239.799C150.286 242.553 148.807 245.97 148.807 250.05C148.807 254.64 150.592 258.312 154.162 261.066C157.732 263.82 162.73 265.197 169.156 265.197C175.276 265.197 180.529 263.82 184.915 261.066C189.403 258.21 192.667 254.13 194.707 248.826L197.155 256.323C195.115 261.627 191.545 265.86 186.445 269.022C181.447 272.184 175.123 273.765 167.473 273.765Z" fill="#1E1E1E"/>
</svg>
